<svg xmlns="http://www.w3.org/2000/svg" viewBox="0 0 100 100">
  <!-- Background -->
  <rect width="100" height="100" fill="#0a0a0a"/>
  
  <!-- Drone body -->
  <rect x="30" y="40" width="40" height="10" fill="#333" rx="2"/>
  
  <!-- Drone propellers -->
  <circle cx="30" cy="30" r="8" fill="#222" stroke="#00FFFF" stroke-width="2"/>
  <circle cx="70" cy="30" r="8" fill="#222" stroke="#00FFFF" stroke-width="2"/>
  <circle cx="30" cy="60" r="8" fill="#222" stroke="#00FFFF" stroke-width="2"/>
  <circle cx="70" cy="60" r="8" fill="#222" stroke="#00FFFF" stroke-width="2"/>
  
  <!-- Drone lights -->
  <circle cx="30" cy="30" r="4" fill="#00FFFF">
    <animate attributeName="opacity" values="1;0.6;1" dur="2s" repeatCount="indefinite"/>
  </circle>
  <circle cx="70" cy="30" r="4" fill="#FF00FF">
    <animate attributeName="opacity" values="0.6;1;0.6" dur="2s" repeatCount="indefinite"/>
  </circle>
  <circle cx="30" cy="60" r="4" fill="#FF00FF">
    <animate attributeName="opacity" values="0.6;1;0.6" dur="2s" repeatCount="indefinite"/>
  </circle>
  <circle cx="70" cy="60" r="4" fill="#00FFFF">
    <animate attributeName="opacity" values="1;0.6;1" dur="2s" repeatCount="indefinite"/>
  </circle>
  
  <!-- Drone center -->
  <circle cx="50" cy="45" r="5" fill="#FF00FF"/>
  
  <!-- Cyberpunk grid lines -->
  <line x1="0" y1="20" x2="100" y2="20" stroke="#00FFFF" stroke-width="0.5" stroke-opacity="0.3"/>
  <line x1="0" y1="40" x2="100" y2="40" stroke="#00FFFF" stroke-width="0.5" stroke-opacity="0.3"/>
  <line x1="0" y1="60" x2="100" y2="60" stroke="#00FFFF" stroke-width="0.5" stroke-opacity="0.3"/>
  <line x1="0" y1="80" x2="100" y2="80" stroke="#00FFFF" stroke-width="0.5" stroke-opacity="0.3"/>
  
  <line x1="20" y1="0" x2="20" y2="100" stroke="#FF00FF" stroke-width="0.5" stroke-opacity="0.3"/>
  <line x1="40" y1="0" x2="40" y2="100" stroke="#FF00FF" stroke-width="0.5" stroke-opacity="0.3"/>
  <line x1="60" y1="0" x2="60" y2="100" stroke="#FF00FF" stroke-width="0.5" stroke-opacity="0.3"/>
  <line x1="80" y1="0" x2="80" y2="100" stroke="#FF00FF" stroke-width="0.5" stroke-opacity="0.3"/>
</svg>
